<?xml version="1.0" encoding="UTF-8" standalone="no" ?>
<!DOCTYPE svg PUBLIC "-//W3C//DTD SVG 1.1//EN" "http://www.w3.org/Graphics/SVG/1.1/DTD/svg11.dtd">
<svg xmlns="http://www.w3.org/2000/svg" xmlns:xlink="http://www.w3.org/1999/xlink" version="1.1" width="1080" height="1080" viewBox="0 0 1080 1080" xml:space="preserve">
<desc>Created with Fabric.js 5.2.4</desc>
<defs>
</defs>
<g transform="matrix(1 0 0 1 540 540)" id="e0d23181-e051-4130-92bd-8059899ea689"  >
<rect style="stroke: none; stroke-width: 1; stroke-dasharray: none; stroke-linecap: butt; stroke-dashoffset: 0; stroke-linejoin: miter; stroke-miterlimit: 4; fill: rgb(255,255,255); fill-rule: nonzero; opacity: 1; visibility: hidden;" vector-effect="non-scaling-stroke"  x="-540" y="-540" rx="0" ry="0" width="1080" height="1080" />
</g>
<g transform="matrix(Infinity NaN NaN Infinity 0 0)" id="4c4a7877-761a-4ca2-8c86-086f9945a11a"  >
</g>
<g transform="matrix(46.08 0 0 46.08 540 540)" id="551ae9f1-6af8-4085-a094-b385ef8cd984"  >
<path style="stroke: rgb(0,0,0); stroke-width: 0; stroke-dasharray: none; stroke-linecap: butt; stroke-dashoffset: 0; stroke-linejoin: miter; stroke-miterlimit: 4; fill: rgb(0,0,0); fill-rule: nonzero; opacity: 1;" vector-effect="non-scaling-stroke"  transform=" translate(-11.62, -12.51)" d="M 10.5014 1.15359 C 10.8116 0.975177 11.1935 0.97613 11.5029 1.15609 C 12.3449 1.64601 13.1238 2.05985 13.8587 2.4503 L 13.8587 2.45031 C 14.036 2.54449 14.2107 2.63732 14.3831 2.72953 C 15.2573 3.19699 16.0823 3.65354 16.811 4.16777 C 18.3248 5.23608 19.4192 6.5535 19.9701 8.7574 C 20.5121 10.9255 20.2212 12.8599 19.8424 14.661 C 19.7713 14.999 19.6979 15.33 19.6254 15.6567 L 19.6254 15.657 L 19.6253 15.6572 C 19.3752 16.7852 19.1364 17.8621 19.0422 19 L 19.4114 19 L 19.8418 19 L 19.9591 19 L 19.9896 19 L 19.9974 19 L 19.9994 19 L 19.9998 19 L 20 19 L 20 19 C 20.4304 19 20.8126 19.2754 20.9487 19.6838 L 21.7207 22 L 22 22 C 22.5523 22 23 22.4477 23 23 C 23 23.5523 22.5523 24 22 24 L 21 24 L 4.99999 24 L 3.99999 24 C 3.4477 24 2.99999 23.5523 2.99999 23 C 2.99999 22.4477 3.4477 22 3.99999 22 L 4.27923 22 L 5.0513 19.6838 C 5.18742 19.2754 5.56956 19 5.99999 19 L 7.32295 19 L 8.76926 15.3842 L 3.5401 16.7603 C 2.62461 17.0013 1.66561 16.5673 1.24226 15.7206 L 0.445745 14.1276 C 0.0446075 13.3253 0.224632 12.3499 0.899071 11.7473 C 1.70728 11.0252 3.23043 9.67416 4.3593 8.73219 C 4.843 8.32858 5.20051 7.8615 5.53425 7.34475 C 5.66811 7.13749 5.79158 6.93296 5.92146 6.71778 C 5.95694 6.65901 5.9929 6.59944 6.02967 6.53881 C 6.19574 6.26503 6.37548 5.97487 6.57499 5.69604 C 6.97917 5.13114 7.49272 4.57147 8.24793 4.18005 C 8.75596 3.91675 9.33341 3.75004 9.99999 3.68226 L 9.99999 2.02045 C 9.99999 1.66259 10.1912 1.33201 10.5014 1.15359 Z M 10.9804 14.8024 C 11.0177 14.9867 11.0035 15.1837 10.9285 15.3714 L 9.47702 19 L 11.6541 19 L 17.0372 19 C 17.1375 17.6202 17.424 16.3351 17.6873 15.1537 C 17.7561 14.8451 17.8233 14.5436 17.8852 14.2493 C 18.2489 12.5205 18.458 10.955 18.0298 9.24247 C 17.6107 7.56581 16.836 6.63326 15.6578 5.80185 C 15.0405 5.36622 14.3138 4.96048 13.44 4.49317 C 13.2759 4.40542 13.1069 4.31563 12.9332 4.2234 L 12.9332 4.22336 L 12.933 4.22327 L 12.9325 4.22299 C 12.6347 4.06478 12.3233 3.89937 12 3.72468 L 12 4.6531 C 12 4.92495 11.8893 5.18509 11.6934 5.3736 C 11.4976 5.56212 11.2334 5.66277 10.9617 5.65237 C 10.0884 5.61894 9.54299 5.7615 9.16824 5.95573 C 8.79357 6.14991 8.50124 6.44093 8.20152 6.85983 C 8.04907 7.07288 7.90234 7.3079 7.73968 7.57607 L 7.64174 7.73808 L 7.64172 7.73812 C 7.50998 7.95641 7.36635 8.19443 7.21432 8.42982 C 6.82599 9.03109 6.34133 9.68314 5.64067 10.2678 C 4.54252 11.1841 3.04532 12.5118 2.23561 13.2352 L 3.03111 14.8262 L 11.7455 12.5329 C 12.2796 12.3924 12.8265 12.7114 12.9671 13.2455 C 13.1076 13.7796 12.7886 14.3265 12.2545 14.4671 L 10.9804 14.8024 Z M 7 21 L 9 21 L 9.05777 21 L 11.6541 21 L 18 21 L 19.2792 21 L 19.6126 22 L 6.38741 22 L 6.72075 21 L 7 21 Z M 9.5 11 C 10.3284 11 11 10.3284 11 9.5 C 11 8.67157 10.3284 8 9.5 8 C 8.67157 8 8 8.67157 8 9.5 C 8 10.3284 8.67157 11 9.5 11 Z" stroke-linecap="round" />
</g>
</svg>